<svg width="25" height="24" viewBox="0 0 25 24" fill="none" xmlns="http://www.w3.org/2000/svg">
<path d="M6.5 23.5C5.66667 23.5 4.95833 23.2083 4.375 22.625C3.79167 22.0417 3.5 21.3333 3.5 20.5C3.5 19.6667 3.79167 18.9583 4.375 18.375C4.95833 17.7917 5.66667 17.5 6.5 17.5C6.73333 17.5 6.95 17.525 7.15 17.575C7.35 17.625 7.54167 17.6917 7.725 17.775L9.15 16C8.68333 15.4833 8.35833 14.9 8.175 14.25C7.99167 13.6 7.95 12.95 8.05 12.3L6.025 11.625C5.74167 12.0417 5.38333 12.375 4.95 12.625C4.51667 12.875 4.03333 13 3.5 13C2.66667 13 1.95833 12.7083 1.375 12.125C0.791667 11.5417 0.5 10.8333 0.5 10C0.5 9.16667 0.791667 8.45833 1.375 7.875C1.95833 7.29167 2.66667 7 3.5 7C4.33333 7 5.04167 7.29167 5.625 7.875C6.20833 8.45833 6.5 9.16667 6.5 10C6.5 10.0333 6.5 10.0667 6.5 10.1C6.5 10.1333 6.5 10.1667 6.5 10.2L8.525 10.9C8.85833 10.3 9.30417 9.79167 9.8625 9.375C10.4208 8.95833 11.05 8.69167 11.75 8.575V6.4C11.1 6.21667 10.5625 5.8625 10.1375 5.3375C9.7125 4.8125 9.5 4.2 9.5 3.5C9.5 2.66667 9.79167 1.95833 10.375 1.375C10.9583 0.791667 11.6667 0.5 12.5 0.5C13.3333 0.5 14.0417 0.791667 14.625 1.375C15.2083 1.95833 15.5 2.66667 15.5 3.5C15.5 4.2 15.2833 4.8125 14.85 5.3375C14.4167 5.8625 13.8833 6.21667 13.25 6.4V8.575C13.95 8.69167 14.5792 8.95833 15.1375 9.375C15.6958 9.79167 16.1417 10.3 16.475 10.9L18.5 10.2C18.5 10.1667 18.5 10.1333 18.5 10.1C18.5 10.0667 18.5 10.0333 18.5 10C18.5 9.16667 18.7917 8.45833 19.375 7.875C19.9583 7.29167 20.6667 7 21.5 7C22.3333 7 23.0417 7.29167 23.625 7.875C24.2083 8.45833 24.5 9.16667 24.5 10C24.5 10.8333 24.2083 11.5417 23.625 12.125C23.0417 12.7083 22.3333 13 21.5 13C20.9667 13 20.4792 12.875 20.0375 12.625C19.5958 12.375 19.2417 12.0417 18.975 11.625L16.95 12.3C17.05 12.95 17.0083 13.5958 16.825 14.2375C16.6417 14.8792 16.3167 15.4667 15.85 16L17.275 17.75C17.4583 17.6667 17.65 17.6042 17.85 17.5625C18.05 17.5208 18.2667 17.5 18.5 17.5C19.3333 17.5 20.0417 17.7917 20.625 18.375C21.2083 18.9583 21.5 19.6667 21.5 20.5C21.5 21.3333 21.2083 22.0417 20.625 22.625C20.0417 23.2083 19.3333 23.5 18.5 23.5C17.6667 23.5 16.9583 23.2083 16.375 22.625C15.7917 22.0417 15.5 21.3333 15.5 20.5C15.5 20.1667 15.5542 19.8458 15.6625 19.5375C15.7708 19.2292 15.9167 18.95 16.1 18.7L14.675 16.925C13.9917 17.3083 13.2625 17.5 12.4875 17.5C11.7125 17.5 10.9833 17.3083 10.3 16.925L8.9 18.7C9.08333 18.95 9.22917 19.2292 9.3375 19.5375C9.44583 19.8458 9.5 20.1667 9.5 20.5C9.5 21.3333 9.20833 22.0417 8.625 22.625C8.04167 23.2083 7.33333 23.5 6.5 23.5Z" fill="white" stroke="black" stroke-linejoin="bevel"/>
</svg>
